<?xml version="1.0" encoding="UTF-8" standalone="no"?>
<svg
   version="1.1"
   width="394px"
   height="414px"
   style="shape-rendering:geometricPrecision; text-rendering:geometricPrecision; image-rendering:optimizeQuality; fill-rule:evenodd; clip-rule:evenodd"
   id="svg10"
   sodipodi:docname="zng-logo.svg"
   inkscape:version="1.3.2 (091e20e, 2023-11-25, custom)"
   xmlns:inkscape="http://www.inkscape.org/namespaces/inkscape"
   xmlns:sodipodi="http://sodipodi.sourceforge.net/DTD/sodipodi-0.dtd"
   xmlns="http://www.w3.org/2000/svg"
   xmlns:svg="http://www.w3.org/2000/svg">
  <defs
     id="defs10" />
  <sodipodi:namedview
     id="namedview10"
     pagecolor="#ffffff"
     bordercolor="#000000"
     borderopacity="0.25"
     inkscape:showpageshadow="2"
     inkscape:pageopacity="0.0"
     inkscape:pagecheckerboard="0"
     inkscape:deskcolor="#d1d1d1"
     showgrid="false"
     inkscape:zoom="3.1273249"
     inkscape:cx="347.58141"
     inkscape:cy="294.02126"
     inkscape:window-width="3840"
     inkscape:window-height="2066"
     inkscape:window-x="-11"
     inkscape:window-y="-11"
     inkscape:window-maximized="1"
     inkscape:current-layer="svg10" />
  <g
     id="g2">
    <path
       style="opacity:1"
       fill="#fbfbfb"
       d="M 195.5,0.5 C 260.768,24.7003 326.102,48.7003 391.5,72.5C 380.552,141.523 369.385,210.523 358,279.5C 304.576,324.099 250.743,368.099 196.5,411.5C 142.257,368.099 88.4238,324.099 35,279.5C 23.6148,210.523 12.4482,141.523 1.5,72.5C 66.4614,49.0712 131.128,25.0712 195.5,0.5 Z"
       id="path2" />
  </g>
  <g
     id="g3">
    <path
       style="opacity:1"
       fill="#028001"
       d="M 382.5,79.5 C 320.404,114.542 258.404,149.542 196.5,184.5C 134.916,149.682 72.9156,114.682 10.5,79.5C 72.0606,55.0844 134.061,31.4178 196.5,8.5C 258.939,31.4178 320.939,55.0844 382.5,79.5 Z"
       id="path3" />
  </g>
  <g
     id="g4">
    <path
       style="opacity:1"
       fill="#fdfefd"
       d="m 232.5,71 c -1.3117,-1.729318 -20.96438,-8.845146 -60,-26 7.853,-3.7578 15.853,-7.2578 24,-10.5 37.293,15.2644 74.627,30.4311 112,45.5 -7.509,4.255 -15.176,8.255 -23,12 -50.003,0.4203 -100.003,1.087 -150,2 25.822,12.744 51.489,25.744 77,39 -10.437,5.635 -20.937,11.135 -31.5,16.5 C 140.609,128.055 100.443,106.222 60.5,84 l 30,-12 c 92.67874,-1.299295 112.14218,0.279877 142,-1 z"
       id="path4"
       sodipodi:nodetypes="ccccccccccc" />
  </g>
  <g
     id="g6">
    <path
       style="opacity:1"
       fill="#800101"
       d="M 10.5,79.5 C 72.9156,114.682 134.916,149.682 196.5,184.5C 196.5,256.5 196.5,328.5 196.5,400.5C 144.894,359.404 93.3935,318.07 42,276.5C 31.2822,210.86 20.7822,145.193 10.5,79.5 Z"
       id="path6" />
  </g>
  <g
     id="g7">
    <path
       style="opacity:1"
       fill="#010080"
       d="M 382.5,79.5 C 372.218,145.193 361.718,210.86 351,276.5C 299.606,318.07 248.106,359.404 196.5,400.5C 196.5,328.5 196.5,256.5 196.5,184.5C 258.404,149.542 320.404,114.542 382.5,79.5 Z"
       id="path7" />
  </g>
  <g
     id="g8">
    <path
       style="opacity:1"
       fill="#fefdfd"
       d="m 47.5,134.5 c 36.1949,21.351 72.028,43.351 107.5,66 -0.14681,12.11217 0.65971,20.71395 0.5,33 -20,11.667 -40,23.333 -60,35 21.692,17.019 46.29222,34.42084 68.60022,50.73484 -0.41411,9.33853 -0.92801,17.93669 -1.60022,27.26516 -33.976,-26.142 -67.8098,-52.476 -101.5,-79 -0.952633,-9.06488 -2.432276,-17.42536 -3,-27 16.8063,-11.98 33.3063,-24.313 49.5,-37 -18.2051,-12.692 -36.7051,-25.026 -55.5,-37 -1.4654,-10.694 -2.9654,-21.361 -4.5,-32 z"
       id="path8"
       sodipodi:nodetypes="ccccccccccc" />
  </g>
  <g
     id="g9">
    <path
       style="opacity:1"
       fill="#fcfcfd"
       d="M 337.5,143.5 C 338.725,144.152 339.392,145.319 339.5,147C 335.272,181.536 330.772,216.036 326,250.5C 322.556,263.053 317.223,274.72 310,285.5C 294.281,305.241 275.114,320.407 252.5,331C 245.587,333.088 241.42,330.588 240,323.5C 239.333,319.5 239.333,315.5 240,311.5C 250.344,305.151 260.677,298.818 271,292.5C 272.12,294.075 273.62,295.075 275.5,295.5C 284.772,292.062 291.272,285.729 295,276.5C 297.532,267.644 298.866,258.644 299,249.5C 290.833,267 278,279.833 260.5,288C 251.613,289.306 245.446,285.806 242,277.5C 235.462,239.447 246.295,207.281 274.5,181C 280.422,176.872 286.756,173.539 293.5,171C 299.772,169.473 304.772,171.306 308.5,176.5C 309.097,171.089 309.931,165.755 311,160.5C 320.008,154.97 328.841,149.304 337.5,143.5 Z"
       id="path9" />
  </g>
  <g
     id="g10">
    <path
       style="opacity:1"
       fill="#080481"
       d="M 294.5,198.5 C 300.093,198.26 302.927,200.927 303,206.5C 304.127,222.459 298.96,235.959 287.5,247C 283.652,249.905 279.819,250.072 276,247.5C 272.781,232.145 275.781,218.145 285,205.5C 288.09,202.889 291.256,200.555 294.5,198.5 Z"
       id="path10" />
  </g>
</svg>
